<svg xmlns="http://www.w3.org/2000/svg" width="198.011" height="61.514" viewBox="13.535 50.35 198.011 61.514"><path fill="#1A1A18" d="M36.488 68.531h-22.36v-1.947h22.36v1.947zm0 25.794h-22.36v-1.947h22.36v1.947zm-2.19-7.138c-.919.613-2.362 1.73-4.326 3.353-2.776-4.488-5.209-8.291-7.3-11.41l-.973.649c.108 4.002.297 7.39.568 10.166a29.164 29.164 0 0 0-2.623-.108c-.937 0-1.749.036-2.433.108l-.892-.811c.144-3.172.216-6.074.216-8.706 0-2.667-.072-5.498-.216-8.49l.946-.919c.721.072 1.478.108 2.271.108.829 0 1.658-.036 2.487-.108a56.167 56.167 0 0 0-.433 6.759 391.7 391.7 0 0 0 9.058-7.273l2.082 1.541-5.894 4.299a126.721 126.721 0 0 0 7.462 10.842z"/><path fill="#1A1A18" d="M59.146 68.531H33.352v-1.947h25.794v1.947zm0 25.794H33.352v-1.947h25.794v1.947zm-2.19-7.084a53.912 53.912 0 0 0-4.678 3.407 407.034 407.034 0 0 0-7.138-12.14c-2.524 3.515-5.164 7.562-7.922 12.14l-1.676-2.379c3.28-4.867 5.948-8.967 8.003-12.302l-1.784-2.569a80.836 80.836 0 0 0 4.515-3.163c3.19 5.443 6.75 11.112 10.68 17.006zm-8.49-.595a55.602 55.602 0 0 0-3.623 3.163 49.443 49.443 0 0 0-3.677-3.163c1.514-1.514 2.74-2.83 3.677-3.947.955 1.172 2.163 2.487 3.623 3.947z"/><path fill="#1A1A18" d="M78.856 68.531h-20.9v-1.947h20.9v1.947zm0 25.794h-20.9v-1.947h20.9v1.947zm-2.191-9.679c0 3.01-2.127 4.714-6.381 5.11-1.37.126-2.812.189-4.326.189h-4.921l-.892-.811c.144-3.172.216-6.074.216-8.706 0-2.667-.072-5.498-.216-8.49l.946-.919h3.975c1.388 0 2.722.045 4.002.135 2.794.199 4.705.856 5.732 1.974.541.595.811 1.406.811 2.433 0 2.073-1.523 3.479-4.569 4.218 3.748.739 5.623 2.361 5.623 4.867zm-6.137-8.463c0-1.261-.55-2.217-1.649-2.866-.883-.504-2.019-.784-3.407-.838l-.054 7.354c1.37-.072 2.496-.351 3.38-.838 1.153-.649 1.73-1.586 1.73-2.812zm1 8.571c0-2.253-2.037-3.505-6.11-3.758l.054 7.516c4.037-.252 6.056-1.505 6.056-3.758z"/><path fill="#1A1A18" d="M102.702 68.531H78.477v-1.947h24.226l-.001 1.947zm0 25.794H78.477v-1.947h24.226l-.001 1.947zm-2.19-13.816c0 2.884-1.027 5.237-3.082 7.057-1.983 1.767-4.434 2.65-7.354 2.65-1.983 0-3.718-.473-5.205-1.42-1.487-.946-2.609-2.329-3.366-4.15a10.666 10.666 0 0 1-.838-4.164c0-2.938 1.009-5.308 3.028-7.111 1.929-1.748 4.38-2.623 7.354-2.623 2.848 0 5.137.91 6.868 2.731 1.73 1.821 2.595 4.164 2.595 7.03zm-5.84 1.244c0-2.163-.406-4.019-1.217-5.57-.919-1.748-2.325-2.965-4.218-3.65-1.857 1.298-2.785 3.443-2.785 6.435 0 2.145.396 3.984 1.19 5.516.901 1.767 2.28 3.01 4.137 3.731 1.929-1.352 2.893-3.506 2.893-6.462zM123.872 68.531h-20.9v-1.947h20.9v1.947zm0 25.794h-20.9v-1.947h20.9v1.947zm-2.19-9.679c0 3.01-2.127 4.714-6.381 5.11-1.37.126-2.812.189-4.326.189h-4.921l-.892-.811c.144-3.172.216-6.074.216-8.706 0-2.667-.072-5.498-.216-8.49l.946-.919h3.975c1.388 0 2.722.045 4.002.135 2.794.199 4.705.856 5.732 1.974.541.595.811 1.406.811 2.433 0 2.073-1.523 3.479-4.569 4.218 3.748.739 5.623 2.361 5.623 4.867zm-6.138-8.463c0-1.261-.55-2.217-1.649-2.866-.883-.504-2.019-.784-3.407-.838l-.054 7.354c1.37-.072 2.496-.351 3.38-.838 1.154-.649 1.73-1.586 1.73-2.812zm1.001 8.571c0-2.253-2.037-3.505-6.11-3.758l.054 7.516c4.037-.252 6.056-1.505 6.056-3.758z"/><path fill="#1A1A18" d="M147.827 68.531h-25.794v-1.947h25.794v1.947zm0 25.794h-25.794v-1.947h25.794v1.947zm-2.19-7.084a53.746 53.746 0 0 0-4.677 3.407 407.034 407.034 0 0 0-7.138-12.14c-2.524 3.515-5.164 7.562-7.922 12.14l-1.677-2.379c3.28-4.867 5.948-8.967 8.003-12.302l-1.784-2.569a80.836 80.836 0 0 0 4.515-3.163c3.191 5.443 6.75 11.112 10.68 17.006zm-8.49-.595a55.602 55.602 0 0 0-3.623 3.163 49.443 49.443 0 0 0-3.677-3.163c1.514-1.514 2.74-2.83 3.677-3.947.955 1.172 2.163 2.487 3.623 3.947z"/><path fill="#1A1A18" d="M166.131 68.531h-19.494v-1.947h19.494v1.947zm0 25.794h-19.494v-1.947h19.494v1.947zm-2.19-17.574c0 4.218-3.244 6.381-9.733 6.489.072 2.145.27 4.38.595 6.705a40.362 40.362 0 0 0-5.083 0l-.892-.811c.144-3.172.216-6.074.216-8.706 0-2.667-.072-5.498-.216-8.49l.946-.919c.613 0 1.532-.009 2.758-.027h2.758c1.478 0 2.505.036 3.082.108.649.072 1.325.262 2.028.568 2.36.991 3.541 2.686 3.541 5.083zm-4.975.459c0-2.758-1.532-4.317-4.596-4.677a195.61 195.61 0 0 0-.162 7.543v1.73c3.172-.36 4.758-1.892 4.758-4.596z"/><path fill="#1A1A18" d="M188.031 68.531h-22.36v-1.947h22.36v1.947zm0 25.794h-22.36v-1.947h22.36v1.947zm-2.19-7.138c-.919.613-2.362 1.73-4.326 3.353-2.776-4.488-5.209-8.291-7.3-11.41l-.973.649c.108 4.002.297 7.39.568 10.166a29.164 29.164 0 0 0-2.623-.108c-.937 0-1.748.036-2.433.108l-.892-.811c.144-3.172.216-6.074.216-8.706 0-2.667-.072-5.498-.216-8.49l.946-.919c.721.072 1.478.108 2.271.108.829 0 1.658-.036 2.487-.108a56.374 56.374 0 0 0-.433 6.759 391.7 391.7 0 0 0 9.058-7.273l2.082 1.541-5.894 4.299a126.721 126.721 0 0 0 7.462 10.842z"/><path fill="#1A1A18" d="M210.688 68.531h-25.794v-1.947h25.794v1.947zm0 25.794h-25.794v-1.947h25.794v1.947zm-2.19-7.084a53.746 53.746 0 0 0-4.677 3.407 407.034 407.034 0 0 0-7.138-12.14c-2.524 3.515-5.164 7.562-7.922 12.14l-1.676-2.379c3.28-4.867 5.948-8.967 8.003-12.302l-1.784-2.569a80.836 80.836 0 0 0 4.515-3.163c3.19 5.443 6.749 11.112 10.679 17.006zm-8.49-.595a55.602 55.602 0 0 0-3.623 3.163 49.443 49.443 0 0 0-3.677-3.163c1.514-1.514 2.74-2.83 3.677-3.947.956 1.172 2.163 2.487 3.623 3.947z"/><path fill="#0F0D09" d="M13.745 51.487h.907v14.286h-.907zM29.546 51.487h.907v14.286h-.907zM16.968 60.24l-1.023-.84 9.611-8.082 1.783.025z"/><path fill="#0F0D09" d="M22.407 65.735l-8.03-5.982.038-1.539 9.912 7.5zM21.3 65.826l-5.75-1.441v1.329h-.454v-4.449l6.204 4.561zm-5.75-1.909l3.623.908-3.623-2.664v1.756z"/><path fill="#0F0D09" d="M14.475 59.302l-.317-.383 4.987-4.128h-4.026l4.714-2.801-5.371.005-.001-.497 7.184-.007-4.717 2.803h3.596zM29.726 60.944l-6.1-4.592 5.995-4.877.573.704-5.096 4.145 5.174 3.896z"/><path fill="#0F0D09" d="M26.074 65.714h-1.747l5.287-5.042.736 1.041zM29.13 58.498l-2.874-2.144 2.874-2.574v4.718zm-2.158-2.176l1.705 1.272v-2.798l-1.705 1.526zM24.107 63.712l-4.92-3.55 3.383-2.71 4.743 3.551-3.206 2.709zm-4.171-3.569l4.149 2.994 2.5-2.113-4.005-2.998-2.644 2.117zM32.27 51.572h.907v14.286h-.907zM48.071 51.572h.907v14.286h-.907zM35.494 60.324l-1.024-.839 9.611-8.083 1.783.025z"/><path fill="#0F0D09" d="M40.933 65.82l-8.03-5.982.038-1.539 9.912 7.5zM39.826 65.911l-5.75-1.441v1.329h-.454V61.35l6.204 4.561zm-5.75-1.909l3.624.908-3.624-2.664v1.756z"/><path fill="#0F0D09" d="M33.001 59.387l-.317-.383 4.986-4.129h-4.026l4.714-2.8-5.371.005v-.497l7.184-.007-4.717 2.802h3.596zM48.252 61.029l-6.1-4.592 5.995-4.877.572.704-5.096 4.145 5.174 3.896z"/><path fill="#0F0D09" d="M44.599 65.799h-1.746l5.286-5.043.737 1.042zM47.655 58.583l-2.874-2.144 2.874-2.574v4.718zm-2.158-2.176l1.705 1.272V54.88l-1.705 1.527zM42.632 63.797l-4.92-3.55 3.383-2.71 4.743 3.551-3.206 2.709zm-4.171-3.569l4.149 2.994 2.5-2.113-4.006-2.999-2.643 2.118zM50.796 50.766h.907v14.286h-.907zM66.597 50.766h.907v14.286h-.907zM54.019 59.518l-1.023-.839 9.611-8.083 1.783.025z"/><path fill="#0F0D09" d="M59.459 65.014l-8.031-5.982.038-1.539 9.912 7.5zM58.351 65.104l-5.75-1.441v1.329h-.454v-4.449l6.204 4.561zm-5.75-1.908l3.624.908-3.624-2.664v1.756z"/><path fill="#0F0D09" d="M51.527 58.58l-.317-.382 4.986-4.129H52.17l4.714-2.8-5.371.005-.001-.497 7.184-.007-4.717 2.802h3.596zM66.777 60.223l-6.099-4.592 5.994-4.877.573.704-5.096 4.145 5.174 3.895z"/><path fill="#0F0D09" d="M63.125 64.993h-1.747l5.287-5.043.736 1.042zM66.181 57.777l-2.874-2.144 2.874-2.574v4.718zm-2.158-2.176l1.705 1.272v-2.798l-1.705 1.526zM61.158 62.991l-4.92-3.55 3.383-2.71 4.743 3.551-3.206 2.709zm-4.171-3.569l4.149 2.994 2.5-2.113-4.006-2.998-2.643 2.117zM69.321 51.156h.907v14.286h-.907zM85.122 51.156h.907v14.286h-.907zM72.545 59.908l-1.024-.839 9.611-8.083 1.783.025z"/><path fill="#0F0D09" d="M77.984 65.404l-8.03-5.982.038-1.539 9.912 7.5zM76.877 65.494l-5.75-1.441v1.329h-.454v-4.449l6.204 4.561zm-5.75-1.908l3.623.908-3.623-2.664v1.756z"/><path fill="#0F0D09" d="M70.052 58.97l-.317-.382 4.986-4.129h-4.026l4.714-2.8-5.371.005v-.497l7.184-.007-4.717 2.802h3.596zM85.303 60.613l-6.1-4.592 5.995-4.877.572.704-5.095 4.145 5.174 3.895z"/><path fill="#0F0D09" d="M81.65 65.383h-1.746l5.286-5.043.737 1.042zM84.707 58.167l-2.874-2.143 2.874-2.574v4.717zm-2.159-2.176l1.705 1.272v-2.798l-1.705 1.526zM79.683 63.381l-4.92-3.55 3.384-2.71 4.743 3.551-3.207 2.709zm-4.171-3.569l4.149 2.994 2.5-2.113-4.006-2.998-2.643 2.117zM87.847 50.851h.907v14.286h-.907zM103.648 50.851h.907v14.286h-.907zM91.07 59.603l-1.023-.839 9.611-8.083 1.783.025z"/><path fill="#0F0D09" d="M96.51 65.098l-8.031-5.981.038-1.539 9.912 7.5zM95.403 65.189l-5.75-1.441v1.329h-.454v-4.449l6.204 4.561zm-5.75-1.908l3.623.908-3.623-2.664v1.756z"/><path fill="#0F0D09" d="M88.578 58.665l-.317-.383 4.986-4.128h-4.026l4.714-2.8-5.371.005v-.497l7.183-.007-4.717 2.802h3.596zM103.829 60.308l-6.1-4.593 5.994-4.876.573.703-5.096 4.146 5.174 3.895z"/><path fill="#0F0D09" d="M100.176 65.078h-1.747l5.287-5.043.736 1.042zM103.232 57.861l-2.874-2.144 2.874-2.574v4.718zm-2.158-2.175l1.705 1.272V54.16l-1.705 1.526zM98.209 63.076l-4.92-3.55 3.383-2.71 4.743 3.551-3.206 2.709zm-4.171-3.569l4.149 2.994 2.5-2.113-4.006-2.998-2.643 2.117zM105.545 51.072h.907v14.286h-.907zM121.346 51.072h.907v14.286h-.907zM108.769 59.825l-1.024-.84 9.611-8.082 1.783.025z"/><path fill="#0F0D09" d="M114.208 65.32l-8.03-5.981.038-1.54 9.912 7.5zM113.101 65.411l-5.75-1.441v1.329h-.454V60.85l6.204 4.561zm-5.75-1.908l3.623.908-3.623-2.664v1.756z"/><path fill="#0F0D09" d="M106.276 58.887l-.317-.383 4.986-4.128h-4.026l4.714-2.801-5.37.005-.001-.496 7.184-.008-4.717 2.803h3.596zM121.527 60.53l-6.1-4.593 5.995-4.877.572.704-5.095 4.145 5.174 3.896z"/><path fill="#0F0D09" d="M117.875 65.299h-1.747l5.286-5.042.737 1.041zM120.93 58.083l-2.874-2.144 2.874-2.574v4.718zm-2.158-2.176l1.705 1.272V54.38l-1.705 1.527zM115.908 63.297l-4.92-3.55 3.383-2.71 4.743 3.551-3.206 2.709zm-4.172-3.568l4.149 2.994 2.5-2.113-4.006-2.998-2.643 2.117zM123.244 51.072h.907v14.286h-.907zM139.045 51.072h.907v14.286h-.907zM126.467 59.825l-1.023-.84 9.611-8.082 1.783.025z"/><path fill="#0F0D09" d="M131.907 65.32l-8.031-5.981.038-1.54 9.912 7.5zM130.799 65.411l-5.75-1.441v1.329h-.454V60.85l6.204 4.561zm-5.749-1.908l3.623.908-3.623-2.664v1.756z"/><path fill="#0F0D09" d="M123.975 58.887l-.317-.383 4.986-4.128h-4.026l4.714-2.801-5.371.005-.001-.496 7.184-.008-4.717 2.803h3.596zM139.226 60.53l-6.1-4.593 5.994-4.877.573.704-5.096 4.145 5.174 3.896z"/><path fill="#0F0D09" d="M135.573 65.299h-1.747l5.287-5.042.736 1.041zM138.629 58.083l-2.874-2.144 2.874-2.574v4.718zm-2.158-2.176l1.705 1.272V54.38l-1.705 1.527zM133.606 63.297l-4.92-3.55 3.383-2.71 4.743 3.551-3.206 2.709zm-4.171-3.568l4.149 2.994 2.5-2.113-4.006-2.998-2.643 2.117zM140.942 50.656h.907v14.286h-.907zM156.743 50.656h.907v14.286h-.907zM144.166 59.409l-1.024-.84 9.611-8.082 1.783.025z"/><path fill="#0F0D09" d="M149.605 64.904l-8.03-5.981.038-1.54 9.912 7.5zM148.498 64.995l-5.75-1.441v1.329h-.454v-4.449l6.204 4.561zm-5.75-1.908l3.623.908-3.623-2.664v1.756z"/><path fill="#0F0D09" d="M141.673 58.471l-.317-.383 4.986-4.128h-4.026l4.714-2.801-5.371.005v-.496l7.184-.008-4.717 2.803h3.596zM156.924 60.113l-6.1-4.592 5.995-4.877.572.704-5.096 4.145 5.174 3.896z"/><path fill="#0F0D09" d="M153.271 64.883h-1.746l5.286-5.042.737 1.041zM156.327 57.667l-2.874-2.144 2.874-2.574v4.718zm-2.158-2.176l1.705 1.272v-2.798l-1.705 1.526zM151.304 62.881l-4.92-3.55 3.383-2.71 4.743 3.551-3.206 2.709zm-4.171-3.568l4.149 2.994 2.5-2.113-4.006-2.999-2.643 2.118zM158.641 50.519h.907v14.286h-.907zM174.442 50.519h.907v14.286h-.907zM161.864 59.272l-1.023-.84 9.611-8.082 1.783.025z"/><path fill="#0F0D09" d="M167.303 64.767l-8.03-5.981.038-1.54 9.912 7.501zM166.196 64.858l-5.75-1.441v1.329h-.454v-4.449l6.204 4.561zm-5.75-1.908l3.623.908-3.623-2.664v1.756z"/><path fill="#0F0D09" d="M159.371 58.334l-.316-.383 4.986-4.128h-4.026l4.714-2.801-5.371.006-.001-.497 7.184-.007-4.717 2.802h3.596zM174.622 59.977l-6.1-4.593 5.995-4.877.572.704-5.095 4.146 5.174 3.895z"/><path fill="#0F0D09" d="M170.97 64.747h-1.747l5.286-5.043.737 1.042zM174.026 57.53l-2.874-2.144 2.874-2.574v4.718zm-2.159-2.176l1.705 1.272v-2.798l-1.705 1.526zM169.003 62.745l-4.92-3.55 3.383-2.71 4.743 3.551-3.206 2.709zm-4.171-3.569l4.149 2.994 2.5-2.113-4.006-2.998-2.643 2.117zM176.739 50.573h.907v14.286h-.907zM192.54 50.573h.907v14.286h-.907zM179.963 59.325l-1.024-.84 9.611-8.082 1.783.025z"/><path fill="#0F0D09" d="M185.402 64.82l-8.03-5.981.038-1.539 9.912 7.5zM184.295 64.911l-5.75-1.441v1.33h-.454v-4.449l6.204 4.56zm-5.75-1.908l3.624.908-3.624-2.664v1.756z"/><path fill="#0F0D09" d="M177.47 58.387l-.317-.383 4.986-4.128h-4.026l4.714-2.8-5.371.005v-.497l7.183-.007-4.716 2.802h3.595zM192.721 60.03l-6.1-4.592 5.994-4.877.573.703-5.096 4.146 5.174 3.895z"/><path fill="#0F0D09" d="M189.068 64.8h-1.746l5.286-5.043.736 1.042zM192.124 57.583l-2.874-2.144 2.874-2.574v4.718zm-2.158-2.175l1.705 1.271v-2.798l-1.705 1.527zM187.101 62.798l-4.92-3.55 3.383-2.71 4.743 3.551-3.206 2.709zm-4.171-3.569l4.149 2.994 2.5-2.113-4.006-2.999-2.643 2.118zM194.838 50.657h.907v14.286h-.907zM210.639 50.657h.907v14.286h-.907zM198.061 59.41l-1.024-.84 9.611-8.082 1.783.025z"/><path fill="#0F0D09" d="M203.5 64.905l-8.03-5.981.038-1.54 9.912 7.501zM202.393 64.996l-5.75-1.441v1.329h-.454v-4.449l6.204 4.561zm-5.75-1.908l3.624.908-3.624-2.664v1.756z"/><path fill="#0F0D09" d="M195.568 58.472l-.317-.383 4.986-4.128h-4.026l4.714-2.801-5.37.006-.001-.497 7.184-.007-4.717 2.802h3.596zM210.819 60.115l-6.1-4.593 5.995-4.877.572.704-5.095 4.145 5.174 3.896z"/><path fill="#0F0D09" d="M207.167 64.885h-1.747l5.286-5.043.737 1.042zM210.223 57.668l-2.874-2.143 2.874-2.574v4.717zm-2.159-2.176l1.705 1.272v-2.798l-1.705 1.526zM205.199 62.883l-4.92-3.55 3.383-2.71 4.743 3.551-3.206 2.709zm-4.171-3.569l4.149 2.994 2.501-2.113-4.005-2.999-2.645 2.118zM13.535 97.441h.907v14.286h-.907zM29.336 97.441h.907v14.286h-.907zM16.759 106.194l-1.024-.84 9.611-8.083 1.783.026z"/><path fill="#0F0D09" d="M22.198 111.689l-8.03-5.982.037-1.539 9.913 7.5zM21.091 111.78l-5.75-1.441v1.329h-.454v-4.449l6.204 4.561zm-5.75-1.909l3.623.908-3.623-2.664v1.756z"/><path fill="#0F0D09" d="M14.266 105.256l-.317-.383 4.986-4.129h-4.026l4.714-2.8-5.371.005v-.497l7.184-.007-4.717 2.802h3.595zM29.517 106.898l-6.1-4.592 5.994-4.877.573.704-5.096 4.145 5.174 3.896z"/><path fill="#0F0D09" d="M25.864 111.668h-1.746l5.286-5.042.736 1.041zM28.92 104.452l-2.874-2.144 2.874-2.574v4.718zm-2.158-2.176l1.705 1.272v-2.798l-1.705 1.526zM23.897 109.666l-4.92-3.55 3.383-2.71 4.743 3.55-3.206 2.71zm-4.171-3.569l4.149 2.994 2.5-2.113-4.006-2.998-2.643 2.117zM32.061 97.526h.907v14.286h-.907zM47.861 97.526h.907v14.286h-.907zM35.284 106.278l-1.024-.839 9.612-8.083 1.783.025z"/><path fill="#0F0D09" d="M40.723 111.773l-8.03-5.981.038-1.539 9.912 7.5zM39.616 111.864l-5.75-1.441v1.329h-.454v-4.449l6.204 4.561zm-5.75-1.908l3.624.908-3.624-2.664v1.756z"/><path fill="#0F0D09" d="M32.791 105.34l-.317-.382 4.986-4.129h-4.025l4.713-2.8-5.37.005-.001-.497 7.184-.007-4.717 2.802h3.596zM48.042 106.983l-6.1-4.592 5.995-4.877.572.704-5.095 4.145 5.174 3.895z"/><path fill="#0F0D09" d="M44.39 111.753h-1.747l5.286-5.043.737 1.042zM47.446 104.537l-2.874-2.144 2.874-2.574v4.718zm-2.159-2.176l1.705 1.272v-2.798l-1.705 1.526zM42.423 109.751l-4.92-3.55 3.383-2.71 4.743 3.551-3.206 2.709zm-4.171-3.569l4.149 2.994 2.5-2.112-4.006-2.999-2.643 2.117zM50.586 96.72h.907v14.286h-.907zM66.387 96.72h.907v14.286h-.907zM53.81 105.472l-1.024-.839 9.611-8.083 1.783.025z"/><path fill="#0F0D09" d="M59.249 110.967l-8.03-5.981.038-1.539 9.912 7.5zM58.142 111.058l-5.75-1.441v1.329h-.454v-4.449l6.204 4.561zm-5.75-1.908l3.624.908-3.624-2.664v1.756z"/><path fill="#0F0D09" d="M51.317 104.534l-.317-.383 4.986-4.128H51.96l4.714-2.8-5.371.005v-.497l7.184-.007-4.717 2.802h3.596zM66.568 106.177l-6.1-4.592 5.995-4.877.572.703-5.096 4.146 5.174 3.895z"/><path fill="#0F0D09" d="M62.915 110.947h-1.746l5.286-5.043.737 1.042zM65.971 103.73l-2.874-2.144 2.874-2.574v4.718zm-2.158-2.175l1.705 1.271v-2.798l-1.705 1.527zM60.948 108.945l-4.92-3.55 3.383-2.71 4.743 3.551-3.206 2.709zm-4.171-3.569l4.149 2.994 2.5-2.113-4.006-2.999-2.643 2.118zM69.112 97.11h.907v14.286h-.907zM84.913 97.11h.907v14.286h-.907zM72.335 105.862l-1.023-.839 9.611-8.083 1.783.025z"/><path fill="#0F0D09" d="M77.775 111.357l-8.031-5.981.038-1.539 9.912 7.5zM76.667 111.448l-5.75-1.441v1.329h-.454v-4.449l6.204 4.561zm-5.75-1.908l3.623.908-3.623-2.664v1.756z"/><path fill="#0F0D09" d="M69.842 104.924l-.317-.382 4.987-4.129h-4.026l4.714-2.8-5.371.005-.001-.497 7.184-.007-4.717 2.802h3.596zM85.093 106.567l-6.1-4.592 5.995-4.877.573.704-5.096 4.145 5.174 3.895z"/><path fill="#0F0D09" d="M81.441 111.337h-1.747l5.287-5.043.736 1.042zM84.497 104.12l-2.874-2.144 2.874-2.574v4.718zm-2.158-2.175l1.705 1.271v-2.798l-1.705 1.527zM79.474 109.335l-4.92-3.55 3.383-2.71 4.743 3.55-3.206 2.71zm-4.171-3.569l4.149 2.994 2.5-2.113-4.005-2.998-2.644 2.117zM87.637 96.805h.907v14.286h-.907zM103.438 96.805h.907v14.286h-.907zM90.861 105.557l-1.024-.84 9.611-8.082 1.783.025z"/><path fill="#0F0D09" d="M96.3 111.052l-8.03-5.981.038-1.539 9.912 7.5zM95.193 111.143l-5.75-1.441v1.329h-.454v-4.449l6.204 4.561zm-5.75-1.908l3.623.908-3.623-2.664v1.756z"/><path fill="#0F0D09" d="M88.368 104.619l-.317-.383 4.986-4.128h-4.026l4.714-2.801-5.371.006v-.497l7.184-.007-4.717 2.802h3.596zM103.619 106.262l-6.1-4.593 5.995-4.876.572.703-5.096 4.146 5.175 3.895z"/><path fill="#0F0D09" d="M99.966 111.032H98.22l5.286-5.043.737 1.042zM103.023 103.815l-2.874-2.144 2.874-2.574v4.718zm-2.159-2.176l1.705 1.272v-2.798l-1.705 1.526zM97.999 109.03l-4.92-3.55 3.384-2.71 4.743 3.551-3.207 2.709zm-4.171-3.569l4.149 2.994 2.5-2.113-4.006-2.999-2.643 2.118zM105.336 97.026h.907v14.286h-.907zM121.137 97.026h.907v14.286h-.907zM108.559 105.779l-1.023-.84 9.611-8.082 1.783.025z"/><path fill="#0F0D09" d="M113.999 111.274l-8.031-5.982.038-1.539 9.912 7.5zM112.891 111.365l-5.75-1.441v1.329h-.454v-4.449l6.204 4.561zm-5.75-1.909l3.623.908-3.623-2.664v1.756z"/><path fill="#0F0D09" d="M106.067 104.841l-.317-.383 4.986-4.128h-4.026l4.714-2.801-5.371.005-.001-.497 7.184-.007-4.717 2.802h3.596zM121.318 106.483l-6.1-4.592 5.994-4.877.573.704-5.096 4.145 5.174 3.896z"/><path fill="#0F0D09" d="M117.665 111.253h-1.747l5.287-5.042.736 1.041zM120.721 104.037l-2.874-2.144 2.874-2.574v4.718zm-2.158-2.176l1.705 1.272v-2.798l-1.705 1.526zM115.698 109.252l-4.92-3.55 3.383-2.71 4.743 3.55-3.206 2.71zm-4.171-3.569l4.149 2.994 2.501-2.113-4.006-2.998-2.644 2.117zM123.034 97.026h.907v14.286h-.907zM138.835 97.026h.907v14.286h-.907zM126.258 105.779l-1.024-.84 9.611-8.082 1.783.025z"/><path fill="#0F0D09" d="M131.697 111.274l-8.03-5.982.038-1.539 9.912 7.5zM130.59 111.365l-5.75-1.441v1.329h-.454v-4.449l6.204 4.561zm-5.75-1.909l3.624.908-3.624-2.664v1.756z"/><path fill="#0F0D09" d="M123.765 104.841l-.317-.383 4.986-4.128h-4.026l4.714-2.801-5.371.005v-.497l7.184-.007-4.717 2.802h3.596zM139.016 106.483l-6.1-4.592 5.995-4.877.572.704-5.096 4.145 5.174 3.896z"/><path fill="#0F0D09" d="M135.363 111.253h-1.746l5.286-5.042.737 1.041zM138.419 104.037l-2.874-2.144 2.874-2.574v4.718zm-2.158-2.176l1.705 1.272v-2.798l-1.705 1.526zM133.396 109.252l-4.92-3.55 3.383-2.71 4.743 3.55-3.206 2.71zm-4.171-3.569l4.149 2.994 2.5-2.113-4.005-2.998-2.644 2.117zM140.733 96.61h.907v14.286h-.907zM156.534 96.61h.907v14.286h-.907zM143.956 105.363l-1.024-.84 9.612-8.083 1.783.026z"/><path fill="#0F0D09" d="M149.395 110.858l-8.03-5.982.038-1.539 9.912 7.5zM148.288 110.949l-5.75-1.441v1.329h-.454v-4.449l6.204 4.561zm-5.75-1.909l3.624.908-3.624-2.664v1.756z"/><path fill="#0F0D09" d="M141.463 104.425l-.317-.383 4.987-4.128h-4.026l4.714-2.801-5.371.005-.001-.497 7.184-.007-4.717 2.802h3.596zM156.714 106.067l-6.1-4.592 5.995-4.877.572.704-5.095 4.145 5.174 3.896z"/><path fill="#0F0D09" d="M153.062 110.837h-1.747l5.286-5.042.737 1.041zM156.118 103.621l-2.874-2.144 2.874-2.574v4.718zm-2.159-2.176l1.705 1.272v-2.798l-1.705 1.526zM151.095 108.835l-4.92-3.55 3.383-2.71 4.743 3.551-3.206 2.709zm-4.171-3.569l4.149 2.994 2.501-2.113-4.006-2.999-2.644 2.118zM158.431 96.473h.907v14.286h-.907zM174.232 96.473h.907v14.286h-.907zM161.655 105.226l-1.024-.84 9.611-8.082 1.783.025z"/><path fill="#0F0D09" d="M167.094 110.721l-8.03-5.981.038-1.54 9.912 7.5zM165.987 110.812l-5.75-1.441v1.329h-.454v-4.449l6.204 4.561zm-5.75-1.908l3.624.908-3.624-2.664v1.756z"/><path fill="#0F0D09" d="M159.162 104.288l-.317-.383 4.986-4.128h-4.026l4.714-2.801-5.371.005v-.496l7.184-.008-4.718 2.803h3.596zM174.413 105.931l-6.1-4.593 5.994-4.877.573.704-5.096 4.145 5.174 3.896z"/><path fill="#0F0D09" d="M170.76 110.7h-1.746l5.286-5.042.736 1.041zM173.816 103.484l-2.874-2.144 2.874-2.574v4.718zm-2.158-2.176l1.705 1.272v-2.798l-1.705 1.526zM168.793 108.699l-4.92-3.55 3.383-2.71 4.743 3.55-3.206 2.71zm-4.171-3.569l4.149 2.994 2.5-2.113-4.005-2.998-2.644 2.117zM176.53 96.527h.907v14.286h-.907zM192.331 96.527h.907v14.286h-.907zM179.753 105.279l-1.024-.84 9.611-8.082 1.783.025z"/><path fill="#0F0D09" d="M185.192 110.774l-8.03-5.981.038-1.54 9.912 7.501zM184.085 110.865l-5.75-1.441v1.329h-.454v-4.449l6.204 4.561zm-5.75-1.908l3.624.908-3.624-2.664v1.756z"/><path fill="#0F0D09" d="M177.26 104.341l-.317-.383 4.986-4.128h-4.026l4.714-2.801-5.37.006-.001-.497 7.184-.007-4.717 2.802h3.596zM192.511 105.984l-6.1-4.593 5.995-4.877.572.704-5.095 4.146 5.174 3.895z"/><path fill="#0F0D09" d="M188.859 110.754h-1.747l5.286-5.043.737 1.042zM191.915 103.537l-2.874-2.144 2.874-2.574v4.718zm-2.159-2.176l1.705 1.272v-2.798l-1.705 1.526zM186.891 108.752l-4.92-3.55 3.383-2.71 4.743 3.551-3.206 2.709zm-4.171-3.569l4.149 2.994 2.501-2.113-4.006-2.999-2.644 2.118zM194.628 96.611h.907v14.286h-.907zM210.429 96.611h.907v14.286h-.907zM197.851 105.364l-1.023-.84 9.611-8.082 1.783.025z"/><path fill="#0F0D09" d="M203.291 110.859l-8.031-5.982.038-1.539 9.912 7.5zM202.183 110.95l-5.75-1.441v1.329h-.454v-4.449l6.204 4.561zm-5.75-1.908l3.624.908-3.624-2.664v1.756z"/><path fill="#0F0D09" d="M195.359 104.426l-.317-.383 4.986-4.128h-4.026l4.714-2.801-5.371.006-.001-.498 7.184-.007-4.717 2.803h3.596zM210.609 106.069l-6.099-4.593 5.994-4.877.573.704-5.096 4.146 5.174 3.895z"/><path fill="#0F0D09" d="M206.957 110.838h-1.747l5.287-5.042.736 1.041zM210.013 103.622l-2.874-2.143 2.874-2.574v4.717zm-2.158-2.176l1.705 1.271v-2.798l-1.705 1.527zM204.99 108.837l-4.92-3.55 3.383-2.71 4.743 3.55-3.206 2.71zm-4.171-3.569l4.149 2.994 2.501-2.113-4.006-2.998-2.644 2.117z"/></svg>