<svg xmlns="http://www.w3.org/2000/svg" width="1128.511" height="350.586" viewBox="0 0 1128.5112 350.58563"><defs><clipPath id="a"><path d="M0 420h1160V0H0v420z"/></clipPath></defs><g clip-path="url(#a)" transform="matrix(1.25 0 0 -1.25 -163.979 439.565)"><path d="M235.836 268.756H133.888v8.876h101.948v-8.876zm0-117.603H133.888v8.875h101.948v-8.875zm-9.985 32.544c-4.191-2.795-10.767-7.889-19.724-15.285-12.657 20.463-23.751 37.802-33.284 52.02l-4.438-2.958c.493-18.244 1.356-33.696 2.589-46.351-3.617.328-7.602.494-11.958.494-4.274 0-7.972-.166-11.095-.494l-4.067 3.699c.656 14.463.986 27.694.986 39.694 0 12.161-.33 25.065-.986 38.708l4.314 4.192c3.286-.33 6.738-.493 10.355-.493 3.779 0 7.56.163 11.341.493-1.315-10.849-1.972-21.123-1.972-30.819a1772.338 1772.338 0 0 1 41.297 33.161l9.492-7.027-26.874-19.601c10.109-16.519 21.45-32.998 34.024-49.433" fill="#4c1c14" fill-rule="evenodd"/><path d="M339.14 268.756H221.536v8.876H339.14v-8.876zm0-117.603H221.536v8.875H339.14v-8.875zm-9.985 32.297c-17.917 26.875-34.147 52.72-48.694 77.54a367.481 367.481 0 0 0-20.586-14.423l8.136-11.711c-9.369-15.205-21.533-33.901-36.489-56.09l7.643-10.848c12.574 20.874 24.612 39.325 36.119 55.351a1857.382 1857.382 0 0 0 32.544-55.351c6.985 5.671 14.094 10.848 21.327 15.532m-38.708 2.713a253.696 253.696 0 0 1-16.519-14.423c-5.753 5.424-11.341 10.231-16.765 14.423 6.903 6.903 12.491 12.901 16.765 17.998 4.355-5.343 9.862-11.341 16.519-17.998" fill="#4c1c14" fill-rule="evenodd"/><path d="M429.005 268.757h-95.291v8.876h95.291v-8.876zm0-117.604h-95.291v8.875h95.291v-8.875zm-9.985 44.132c0-13.725-9.698-21.492-29.093-23.299-6.246-.576-12.82-.862-19.724-.862h-22.436l-4.068 3.698c.657 14.463.987 27.694.987 39.694 0 12.161-.33 25.065-.987 38.708l4.315 4.192h18.122c6.327 0 12.408-.207 18.244-.617 12.738-.905 21.45-3.904 26.134-8.999 2.466-2.712 3.698-6.41 3.698-11.096 0-9.451-6.945-15.861-20.833-19.23 17.093-3.371 25.641-10.767 25.641-22.189m-27.983 38.585c0 5.752-2.508 10.109-7.52 13.067-4.028 2.299-9.205 3.574-15.532 3.822l-.247-33.531c6.245.328 11.382 1.601 15.409 3.822 5.259 2.958 7.89 7.23 7.89 12.82m4.561-39.078c0 10.272-9.288 15.983-27.86 17.135l.247-34.27c18.408 1.15 27.613 6.861 27.613 17.135" fill="#4c1c14" fill-rule="evenodd"/><path d="M537.731 268.756H427.277v8.876h110.454v-8.876zm0-117.603H427.277v8.875h110.454v-8.875zm-9.985 62.992c0-13.149-4.684-23.875-14.052-32.174-9.042-8.055-20.218-12.081-33.531-12.081-9.042 0-16.95 2.157-23.731 6.472-6.78 4.314-11.896 10.621-15.347 18.922a48.632 48.632 0 0 0-3.822 18.985c0 13.394 4.602 24.202 13.806 32.421 8.794 7.971 19.971 11.958 33.531 11.958 12.985 0 23.422-4.151 31.313-12.451 7.888-8.302 11.833-18.984 11.833-32.052m-26.627-5.67c0 9.862-1.849 18.325-5.546 25.394-4.193 7.971-10.603 13.518-19.232 16.642-8.465-5.917-12.696-15.698-12.696-29.339 0-9.781 1.806-18.163 5.423-25.148 4.109-8.055 10.396-13.725 18.86-17.012 8.795 6.164 13.191 15.983 13.191 29.463M634.254 268.757h-95.291v8.876h95.291v-8.876zm0-117.604h-95.291v8.875h95.291v-8.875zm-9.985 44.132c0-13.725-9.698-21.492-29.093-23.299-6.246-.576-12.82-.862-19.724-.862h-22.436l-4.068 3.698c.657 14.463.987 27.694.987 39.694 0 12.161-.33 25.065-.987 38.708l4.315 4.192h18.122c6.327 0 12.408-.207 18.244-.617 12.737-.905 21.449-3.904 26.134-8.999 2.466-2.712 3.698-6.41 3.698-11.096 0-9.451-6.945-15.861-20.833-19.23 17.093-3.371 25.641-10.767 25.641-22.189m-27.984 38.585c0 5.752-2.507 10.109-7.519 13.067-4.028 2.299-9.205 3.574-15.532 3.822l-.247-33.531c6.245.328 11.382 1.601 15.409 3.822 5.259 2.958 7.889 7.23 7.889 12.82m4.562-39.078c0 10.272-9.288 15.983-27.86 17.135l.247-34.27c18.408 1.15 27.613 6.861 27.613 17.135" fill="#4c1c14" fill-rule="evenodd"/><path d="M743.474 268.756H625.871v8.876h117.603v-8.876zm0-117.603H625.871v8.875h117.603v-8.875zm-9.986 32.297c-17.917 26.875-34.146 52.72-48.693 77.54a367.875 367.875 0 0 0-20.587-14.423l8.136-11.711c-9.369-15.205-21.533-33.901-36.489-56.09l7.643-10.848c12.574 20.874 24.613 39.325 36.119 55.351a1859.557 1859.557 0 0 0 32.545-55.351c6.984 5.671 14.094 10.848 21.326 15.532m-38.708 2.713a253.96 253.96 0 0 1-16.519-14.423c-5.753 5.424-11.341 10.231-16.765 14.423 6.904 6.903 12.491 12.901 16.765 17.998 4.355-5.343 9.862-11.341 16.519-17.998" fill="#4c1c14" fill-rule="evenodd"/><path d="M826.929 268.756h-88.881v8.876h88.881v-8.876zm0-117.603h-88.881v8.875h88.881v-8.875zm-9.986 80.128c0-19.231-14.792-29.093-44.378-29.586.327-9.781 1.233-19.971 2.712-30.572-3.864.246-7.766.37-11.711.37-3.945 0-7.766-.124-11.465-.37l-4.068 3.698c.657 14.463.987 27.694.987 39.694 0 12.162-.33 25.065-.987 38.708l4.315 4.192c2.793 0 6.984.04 12.573.123h12.575c6.738 0 11.422-.165 14.053-.493 2.959-.329 6.04-1.192 9.245-2.589 10.766-4.52 16.149-12.246 16.149-23.175m-22.682-2.096c0 12.574-6.986 19.681-20.957 21.326-.493-12.656-.739-24.121-.739-34.393v-7.89c14.463 1.644 21.696 8.629 21.696 20.957" fill="#4c1c14" fill-rule="evenodd"/><path d="M926.781 268.756H824.833v8.876h101.948v-8.876zm0-117.603H824.833v8.875h101.948v-8.875zm-9.986 32.544c-4.191-2.795-10.767-7.889-19.724-15.285-12.657 20.463-23.752 37.802-33.284 52.02l-4.438-2.958c.493-18.244 1.356-33.696 2.589-46.351-3.617.328-7.603.494-11.958.494-4.274 0-7.972-.166-11.094-.494l-4.069 3.699c.657 14.463.987 27.694.987 39.694 0 12.161-.33 25.065-.987 38.708l4.315 4.192c3.286-.33 6.738-.493 10.355-.493 3.779 0 7.56.163 11.342.493-1.316-10.849-1.973-21.123-1.973-30.819a1774.444 1774.444 0 0 1 41.297 33.161l9.492-7.027-26.874-19.601c10.109-16.519 21.45-32.998 34.024-49.433" fill="#4c1c14" fill-rule="evenodd"/><path d="M1030.084 268.756H912.48v8.876h117.604v-8.876zm0-117.603H912.48v8.875h117.604v-8.875zm-9.986 32.297c-17.917 26.875-34.146 52.72-48.693 77.54a367.875 367.875 0 0 0-20.587-14.423l8.136-11.711c-9.369-15.205-21.533-33.901-36.489-56.09l7.643-10.848c12.574 20.874 24.613 39.325 36.119 55.351a1859.557 1859.557 0 0 0 32.545-55.351c6.984 5.671 14.094 10.848 21.326 15.532m-38.708 2.713a253.96 253.96 0 0 1-16.519-14.423c-5.753 5.424-11.341 10.231-16.765 14.423 6.904 6.903 12.491 12.901 16.765 17.998 4.355-5.343 9.862-11.341 16.519-17.998" fill="#4c1c14" fill-rule="evenodd"/><path d="M136.275 281.331h-4.136v65.136h4.136v-65.136zM208.318 281.331h-4.136v65.136h4.136v-65.136zM146.837 306.561l-4.667 3.828 43.82 36.851 8.13-.114-47.283-40.565z" fill="#388d9f" fill-rule="evenodd"/><path d="M171.636 281.506l-36.614 27.272.173 7.018L180.39 281.6l-8.753-.094zM166.588 281.092l-26.216 6.568v-6.06h-2.068v20.285l28.284-20.793zm-26.216 8.7l16.52-4.139-16.52 12.145v-8.006z" fill="#388d9f" fill-rule="evenodd"/><path d="M135.471 310.837l-1.445 1.745 22.733 18.823h-18.355l21.493 12.77-24.488-.026-.003 2.266 32.755.033-21.507-12.777h16.395l-27.578-22.834zM205.006 303.348l-27.812 20.939 27.332 22.235 2.61-3.208-23.233-18.901 23.59-17.761-2.487-3.304z" fill="#388d9f" fill-rule="evenodd"/><path d="M188.353 281.6h-7.963l24.102 22.99 3.358-4.748-19.497-18.242zM202.286 314.502l-13.103 9.774 13.103 11.736v-21.51zm-9.84 9.92l7.773-5.798v12.76l-7.773-6.961zM179.383 290.728l-22.432 16.186 15.428 12.355 21.625-16.19-14.62-12.352zM160.367 307l18.917-13.65 11.4 9.632-18.262 13.672L160.367 307zM220.74 280.945h-4.136v65.136h4.136v-65.136zM292.783 280.945h-4.136v65.136h4.136v-65.136zM231.302 306.174l-4.667 3.828 43.821 36.851 8.129-.114-47.283-40.565z" fill="#388d9f" fill-rule="evenodd"/><path d="M256.102 281.12l-36.614 27.272.173 7.018 45.194-34.196-8.753-.094zM251.053 280.706l-26.216 6.568v-6.06h-2.068v20.285l28.284-20.793zm-26.216 8.7l16.521-4.14-16.52 12.146v-8.006z" fill="#388d9f" fill-rule="evenodd"/><path d="M219.936 310.45l-1.445 1.746 22.734 18.824H222.87l21.492 12.768-24.487-.025-.002 2.266 32.754.033-21.507-12.776h16.394l-27.578-22.835zM289.471 302.961l-27.812 20.94 27.332 22.234 2.611-3.208-23.234-18.9 23.591-17.762-2.488-3.304z" fill="#388d9f" fill-rule="evenodd"/><path d="M272.818 281.214h-7.963l24.102 22.99 3.358-4.748-19.497-18.242zM286.751 314.116l-13.103 9.774 13.103 11.736v-21.51zm-9.84 9.92l7.773-5.797v12.758l-7.773-6.961zM263.85 290.34l-22.433 16.187 15.427 12.355 21.625-16.19-14.62-12.351zm-19.018 16.273l18.917-13.65 11.4 9.632-18.263 13.672-12.054-9.654zM305.206 284.62h-4.136v65.136h4.136V284.62zM377.249 284.62h-4.136v65.136h4.136V284.62zM315.768 309.85l-4.667 3.827 43.82 36.851 8.13-.114-47.283-40.565z" fill="#388d9f" fill-rule="evenodd"/><path d="M340.567 284.795l-36.614 27.272.173 7.018 45.194-34.196-8.753-.094zM335.519 284.38l-26.216 6.57v-6.062h-2.068v20.286l28.284-20.794zm-26.216 8.701l16.52-4.14-16.52 12.146v-8.006z" fill="#388d9f" fill-rule="evenodd"/><path d="M304.402 314.126l-1.445 1.745 22.733 18.823h-18.356l21.494 12.77-24.488-.026-.003 2.266 32.755.033-21.507-12.777h16.395l-27.578-22.834zM373.937 306.636l-27.812 20.94 27.332 22.234 2.61-3.208-23.233-18.9 23.59-17.762-2.487-3.304z" fill="#388d9f" fill-rule="evenodd"/><path d="M357.284 284.888h-7.963l24.102 22.991 3.358-4.749-19.497-18.242zM371.218 317.791l-13.104 9.774 13.104 11.735v-21.509zm-9.841 9.92l7.773-5.798v12.76l-7.773-6.962zM348.315 294.016l-22.432 16.186 15.427 12.355 21.625-16.189-14.62-12.352zm-19.017 16.272l18.917-13.65 11.4 9.632-18.264 13.672-12.054-9.654zM389.672 282.841h-4.136v65.136h4.136v-65.136zM461.714 282.841h-4.136v65.136h4.136v-65.136zM400.233 308.071l-4.667 3.828 43.821 36.851 8.129-.114-47.283-40.565z" fill="#388d9f" fill-rule="evenodd"/><path d="M425.033 283.016l-36.614 27.272.173 7.018 45.194-34.196-8.753-.094zM419.985 282.602l-26.216 6.569v-6.061H391.7v20.286l28.284-20.794zm-26.216 8.701l16.52-4.14-16.52 12.146v-8.006z" fill="#388d9f" fill-rule="evenodd"/><path d="M388.868 312.348l-1.445 1.745 22.734 18.823H391.8l21.493 12.769-24.488-.025-.003 2.266 32.755.033-21.506-12.777h16.394l-27.578-22.834zM458.402 304.858l-27.812 20.938 27.332 22.236 2.611-3.208-23.234-18.901 23.591-17.761-2.488-3.304z" fill="#388d9f" fill-rule="evenodd"/><path d="M441.75 283.11h-7.964l24.102 22.991 3.358-4.749-19.497-18.242zM455.682 316.014l-13.103 9.773 13.103 11.736v-21.51zm-9.84 9.919l7.773-5.798v12.759l-7.773-6.961zM432.78 292.238l-22.432 16.186 15.427 12.355 21.625-16.19-14.62-12.352zm-19.017 16.272l18.917-13.65 11.4 9.633-18.263 13.67-12.054-9.654zM474.137 284.233h-4.136v65.136h4.136v-65.136zM546.18 284.233h-4.136v65.136h4.136v-65.136zM484.699 309.463l-4.667 3.828 43.82 36.85 8.13-.113-47.283-40.565z" fill="#388d9f" fill-rule="evenodd"/><path d="M509.498 284.408l-36.614 27.272.173 7.018 45.194-34.196-8.753-.094zM504.45 283.994l-26.216 6.568v-6.06h-2.068v20.285l28.285-20.793zm-26.216 8.7l16.52-4.139-16.52 12.145v-8.006z" fill="#388d9f" fill-rule="evenodd"/><path d="M473.333 313.74l-1.445 1.744 22.734 18.823h-18.356l21.493 12.77-24.488-.026-.002 2.266 32.754.033-21.507-12.777h16.395l-27.578-22.834zM542.868 306.25l-27.812 20.938 27.332 22.235 2.611-3.208-23.234-18.9 23.591-17.762-2.488-3.304z" fill="#388d9f" fill-rule="evenodd"/><path d="M526.215 284.502h-7.963l24.102 22.991 3.358-4.749-19.497-18.242zM540.148 317.404l-13.103 9.774 13.103 11.736v-21.51zm-9.84 9.92l7.773-5.797v12.758l-7.773-6.96zM517.246 293.63l-22.432 16.185 15.427 12.355 21.625-16.189-14.62-12.352zM498.229 309.9l18.917-13.65 11.4 9.632-18.263 13.672-12.054-9.654zM554.832 283.223h-4.136v65.136h4.136v-65.136zM626.874 283.223h-4.135v65.136h4.135v-65.136zM565.393 308.452l-4.667 3.828 43.82 36.851 8.13-.114-47.283-40.565z" fill="#388d9f" fill-rule="evenodd"/><path d="M590.192 283.398l-36.614 27.272.174 7.018 45.193-34.196-8.753-.094zM585.144 282.983l-26.216 6.57v-6.062h-2.068v20.286l28.284-20.794zm-26.216 8.701l16.521-4.14-16.521 12.146v-8.006z" fill="#388d9f" fill-rule="evenodd"/><path d="M554.027 312.73l-1.445 1.744 22.734 18.823H556.96l21.493 12.77-24.488-.026-.002 2.266 32.754.033-21.506-12.777h16.394l-27.578-22.834zM623.563 305.24l-27.812 20.938 27.332 22.235 2.61-3.208-23.233-18.9 23.59-17.762-2.487-3.304z" fill="#388d9f" fill-rule="evenodd"/><path d="M606.909 283.491h-7.963l24.102 22.991 3.358-4.749-19.497-18.242zM620.843 316.394l-13.103 9.774 13.103 11.736v-21.51zm-9.841 9.92l7.773-5.798v12.76l-7.773-6.962zM597.94 292.619l-22.433 16.186 15.427 12.355 21.625-16.19-14.619-12.351zm-19.018 16.272l18.918-13.65 11.4 9.633-18.263 13.67-12.055-9.653zM635.525 283.223h-4.135v65.136h4.135v-65.136zM707.568 283.223h-4.135v65.136h4.135v-65.136zM646.087 308.452l-4.667 3.828 43.82 36.851 8.13-.114-47.283-40.565z" fill="#388d9f" fill-rule="evenodd"/><path d="M670.887 283.398l-36.614 27.272.174 7.018 45.193-34.196-8.753-.094zM665.839 282.983l-26.216 6.57v-6.062h-2.068v20.286l28.284-20.794zm-26.216 8.701l16.52-4.14-16.52 12.146v-8.006z" fill="#388d9f" fill-rule="evenodd"/><path d="M634.722 312.73l-1.445 1.744 22.733 18.823h-18.355l21.492 12.77-24.487-.026-.003 2.266 32.754.033-21.506-12.777H662.3l-27.578-22.834zM704.257 305.24l-27.812 20.938 27.332 22.235 2.61-3.208-23.233-18.9 23.59-17.762-2.487-3.304z" fill="#388d9f" fill-rule="evenodd"/><path d="M687.603 283.491h-7.963l24.102 22.991 3.358-4.749-19.497-18.242zM701.537 316.394l-13.103 9.774 13.103 11.736v-21.51zm-9.841 9.92l7.773-5.798v12.76l-7.773-6.962zM678.635 292.619l-22.433 16.186 15.427 12.355 21.625-16.19-14.62-12.351zm-19.018 16.272l18.917-13.65 11.4 9.633-18.262 13.67-12.055-9.653zM716.22 285.12h-4.135v65.136h4.135V285.12zM788.262 285.12h-4.135v65.136h4.135V285.12zM726.781 310.35l-4.667 3.827 43.821 36.851 8.13-.114-47.284-40.565z" fill="#388d9f" fill-rule="evenodd"/><path d="M751.581 285.295l-36.614 27.272.174 7.018 45.193-34.196-8.753-.094zM746.533 284.88l-26.216 6.569v-6.06h-2.068v20.285l28.284-20.793zm-26.216 8.7l16.52-4.138-16.52 12.145v-8.006z" fill="#388d9f" fill-rule="evenodd"/><path d="M715.416 314.626l-1.445 1.745 22.733 18.824h-18.355l21.492 12.768-24.487-.025-.003 2.266 32.754.033-21.506-12.776h16.395l-27.578-22.835zM784.951 307.136l-27.812 20.938 27.332 22.236 2.61-3.208-23.233-18.9 23.59-17.762-2.487-3.304z" fill="#388d9f" fill-rule="evenodd"/><path d="M768.297 285.388h-7.963l24.102 22.991 3.358-4.749-19.497-18.242zM782.231 318.29l-13.103 9.775 13.103 11.736v-21.51zm-9.841 9.92l7.773-5.797v12.759l-7.773-6.961zM759.329 294.516l-22.433 16.186 15.427 12.355 21.625-16.19-14.62-12.351zm-19.018 16.272l18.917-13.65 11.4 9.632-18.262 13.672-12.055-9.654zM796.914 285.743h-4.135v65.136h4.135v-65.136zM868.956 285.743h-4.135v65.136h4.135v-65.136zM807.476 310.973l-4.667 3.828 43.82 36.851 8.13-.114-47.283-40.565z" fill="#388d9f" fill-rule="evenodd"/><path d="M832.275 285.918l-36.614 27.272.173 7.018 45.194-34.196-8.753-.094zM827.227 285.504l-26.216 6.569v-6.061h-2.068v20.286l28.284-20.794zm-26.216 8.7l16.521-4.14-16.521 12.147v-8.006z" fill="#388d9f" fill-rule="evenodd"/><path d="M796.11 315.25l-1.445 1.745 22.733 18.823h-18.355l21.492 12.769-24.487-.025-.003 2.266 32.754.033-21.506-12.777h16.395L796.11 315.25zM865.645 307.76l-27.812 20.939 27.332 22.235 2.61-3.208-23.233-18.901 23.59-17.761-2.487-3.304z" fill="#388d9f" fill-rule="evenodd"/><path d="M848.991 286.012h-7.963l24.102 22.991 3.358-4.749-19.497-18.242zM862.925 318.915l-13.103 9.774 13.103 11.736v-21.51zm-9.84 9.92l7.772-5.797v12.758l-7.773-6.961zM840.023 295.14l-22.433 16.186 15.427 12.355 21.625-16.19-14.62-12.351zm-19.018 16.272l18.917-13.65 11.4 9.633-18.262 13.67-12.055-9.653zM879.432 285.501h-4.135v65.136h4.135v-65.136zM951.474 285.501h-4.135v65.136h4.135v-65.136zM889.993 310.73l-4.667 3.829 43.821 36.85 8.13-.113-47.284-40.565z" fill="#388d9f" fill-rule="evenodd"/><path d="M914.793 285.676l-36.614 27.272.173 7.018 45.194-34.196-8.753-.094zM909.745 285.262l-26.216 6.568v-6.06h-2.068v20.285l28.284-20.793zm-26.216 8.7l16.52-4.139-16.52 12.145v-8.006z" fill="#388d9f" fill-rule="evenodd"/><path d="M878.628 315.007l-1.445 1.745 22.733 18.824H881.56l21.493 12.768-24.487-.024-.003 2.266 32.754.032-21.506-12.776h16.395l-27.578-22.835zM948.163 307.517l-27.812 20.938 27.332 22.236 2.61-3.208-23.233-18.9 23.59-17.762-2.487-3.304z" fill="#388d9f" fill-rule="evenodd"/><path d="M931.51 285.77h-7.964l24.102 22.99 3.358-4.748-19.497-18.242zM945.443 318.672l-13.103 9.774 13.103 11.736v-21.51zm-9.84 9.92l7.772-5.798v12.759l-7.773-6.961zM922.54 294.897l-22.432 16.186 15.427 12.355 21.625-16.189-14.62-12.352zm-19.017 16.272l18.917-13.65 11.4 9.632-18.262 13.672-12.055-9.654zM961.95 285.114h-4.135v65.136h4.135v-65.136zM1033.992 285.114h-4.135v65.136h4.135v-65.136zM972.511 310.344l-4.667 3.828 43.821 36.851 8.129-.114-47.283-40.565z" fill="#388d9f" fill-rule="evenodd"/><path d="M997.31 285.29l-36.613 27.271.173 7.018 45.194-34.196-8.753-.094zM992.262 284.875l-26.216 6.568v-6.06h-2.068v20.285l28.284-20.793zm-26.216 8.7l16.521-4.139-16.521 12.145v-8.006z" fill="#388d9f" fill-rule="evenodd"/><path d="M961.145 314.62l-1.445 1.746 22.734 18.823h-18.356l21.493 12.769-24.488-.025-.002 2.266 32.754.033-21.507-12.777h16.395l-27.578-22.834zM1030.68 307.13l-27.811 20.939 27.332 22.236 2.61-3.208-23.233-18.901 23.59-17.761-2.487-3.304z" fill="#388d9f" fill-rule="evenodd"/><path d="M1014.027 285.383h-7.963l24.102 22.991 3.358-4.749-19.497-18.242zM1027.961 318.286l-13.103 9.773 13.103 11.736v-21.509zm-9.84 9.92l7.772-5.799v12.76l-7.773-6.961zM1005.058 294.51l-22.432 16.186 15.427 12.355 21.625-16.189-14.62-12.352zm-19.017 16.272l18.917-13.65 11.4 9.632-18.262 13.672-12.055-9.654zM135.319 71.809h-4.136v65.136h4.136V71.809zM207.362 71.809h-4.136v65.136h4.136V71.809zM145.88 97.039l-4.666 3.828 43.82 36.851 8.13-.114-47.283-40.565z" fill="#388d9f" fill-rule="evenodd"/><path d="M170.68 71.984l-36.614 27.272.173 7.018 45.194-34.196-8.753-.094zM165.633 71.57l-26.217 6.568v-6.06h-2.068v20.285l28.285-20.793zm-26.217 8.7l16.52-4.139-16.52 12.145V80.27z" fill="#388d9f" fill-rule="evenodd"/><path d="M134.515 101.316l-1.445 1.745 22.734 18.823h-18.356l21.493 12.769-24.488-.025-.002 2.266 32.754.033-21.506-12.777h16.394l-27.578-22.834zM204.05 93.825l-27.812 20.94 27.333 22.234 2.61-3.208-23.234-18.9 23.591-17.762-2.488-3.304z" fill="#388d9f" fill-rule="evenodd"/><path d="M187.397 72.078h-7.963l24.102 22.991 3.358-4.749-19.497-18.242zM201.33 104.98l-13.103 9.775 13.103 11.735v-21.51zm-9.84 9.92l7.773-5.797v12.759l-7.773-6.961zM178.428 81.205l-22.432 16.187 15.427 12.354 21.625-16.188-14.62-12.353zM159.41 97.477l18.917-13.65 11.4 9.633-18.263 13.67-12.054-9.653zM219.785 71.422h-4.136v65.136h4.136V71.422zM291.827 71.422h-4.136v65.136h4.136V71.422zM230.346 96.652l-4.667 3.828 43.821 36.851 8.13-.114-47.284-40.565z" fill="#388d9f" fill-rule="evenodd"/><path d="M255.146 71.597L218.532 98.87l.173 7.017L263.9 71.691l-8.753-.094zM250.098 71.184l-26.216 6.568v-6.06h-2.068v20.285l28.284-20.793zm-26.216 8.7l16.52-4.14-16.52 12.146v-8.006z" fill="#388d9f" fill-rule="evenodd"/><path d="M218.98 100.93l-1.444 1.744 22.734 18.823h-18.356l21.492 12.768-24.487-.024-.003 2.266 32.755.032-21.506-12.776h16.394L218.98 100.93zM288.516 93.439l-27.812 20.939 27.332 22.235 2.61-3.208-23.233-18.901 23.59-17.761-2.487-3.304z" fill="#388d9f" fill-rule="evenodd"/><path d="M271.862 71.691H263.9l24.102 22.991 3.358-4.749-19.497-18.242zM285.796 104.594l-13.104 9.774 13.104 11.736v-21.51zm-9.84 9.92l7.772-5.798v12.76l-7.773-6.962zM262.893 80.819l-22.432 16.187 15.427 12.354 21.625-16.19-14.62-12.351zM243.876 97.09l18.917-13.65 11.4 9.632-18.263 13.672-12.054-9.654zM304.25 75.098h-4.136v65.136h4.136V75.098zM376.293 75.098h-4.136v65.136h4.136V75.098zM314.812 100.328l-4.667 3.827 43.82 36.852 8.13-.114-47.283-40.565z" fill="#388d9f" fill-rule="evenodd"/><path d="M339.611 75.273l-36.614 27.272.173 7.018 45.194-34.196-8.752-.094zM334.563 74.859l-26.216 6.568v-6.06h-2.068v20.285l28.284-20.793zm-26.216 8.7l16.521-4.139-16.521 12.145v-8.006z" fill="#388d9f" fill-rule="evenodd"/><path d="M303.446 104.604l-1.445 1.745 22.734 18.823h-18.356l21.493 12.768-24.488-.024-.002 2.266 32.754.032-21.507-12.776h16.395l-27.578-22.834zM372.981 97.114l-27.811 20.94 27.332 22.234 2.61-3.208-23.234-18.9 23.591-17.762-2.488-3.304z" fill="#388d9f" fill-rule="evenodd"/><path d="M356.328 75.366h-7.963l24.102 22.991 3.358-4.749-19.497-18.242zM370.261 108.269l-13.103 9.774 13.103 11.736v-21.51zm-9.84 9.92l7.773-5.798v12.76l-7.773-6.962zM347.359 84.494l-22.432 16.187 15.427 12.354 21.625-16.19-14.62-12.351zm-19.017 16.272l18.917-13.65 11.4 9.632-18.263 13.672-12.054-9.654zM388.716 73.319h-4.136v65.136h4.136V73.319zM460.758 73.319h-4.136v65.136h4.136V73.319zM399.277 98.55l-4.667 3.827 43.821 36.851 8.13-.114-47.284-40.565z" fill="#388d9f" fill-rule="evenodd"/><path d="M424.077 73.494l-36.614 27.272.173 7.018 45.194-34.196-8.753-.094zM419.029 73.08l-26.216 6.568v-6.06h-2.068v20.285l28.284-20.793zm-26.216 8.7l16.52-4.139-16.52 12.145V81.78z" fill="#388d9f" fill-rule="evenodd"/><path d="M387.912 102.826l-1.445 1.745 22.734 18.823h-18.356l21.493 12.769-24.488-.025-.002 2.266 32.754.033-21.506-12.777h16.395l-27.58-22.834zM457.447 95.336l-27.812 20.939 27.332 22.235 2.61-3.208-23.233-18.901 23.59-17.761-2.487-3.304z" fill="#388d9f" fill-rule="evenodd"/><path d="M440.793 73.588h-7.963l24.102 22.991 3.358-4.749-19.497-18.242zM454.727 106.491l-13.104 9.773L454.727 128v-21.509zm-9.84 9.92l7.772-5.798v12.76l-7.773-6.963zM431.824 82.715l-22.432 16.187 15.427 12.354 21.625-16.188-14.62-12.353zm-19.017 16.272l18.917-13.649 11.4 9.632-18.263 13.671-12.054-9.654zM473.181 74.711h-4.136v65.136h4.136V74.711zM545.224 74.711h-4.136v65.136h4.136V74.711zM483.743 99.94l-4.667 3.829 43.82 36.85 8.13-.113-47.283-40.565z" fill="#388d9f" fill-rule="evenodd"/><path d="M508.543 74.886l-36.614 27.272.173 7.018 45.194-34.196-8.753-.094zM503.494 74.472l-26.216 6.568v-6.06h-2.068v20.285l28.284-20.793zm-26.216 8.7l16.521-4.14-16.52 12.146v-8.006z" fill="#388d9f" fill-rule="evenodd"/><path d="M472.377 104.217l-1.445 1.745 22.734 18.823H475.31l21.493 12.77-24.488-.026-.003 2.266 32.755.033-21.506-12.777h16.394l-27.578-22.834zM541.912 96.728L514.1 117.667l27.332 22.235 2.61-3.208-23.233-18.901 23.591-17.761-2.488-3.304z" fill="#388d9f" fill-rule="evenodd"/><path d="M525.259 74.98h-7.963l24.102 22.991 3.358-4.749-19.497-18.242zM539.192 107.883l-13.103 9.774 13.103 11.735v-21.51zm-9.84 9.92l7.773-5.798v12.759l-7.773-6.961zM516.29 84.108l-22.432 16.186 15.427 12.355 21.625-16.19-14.62-12.351zm-19.017 16.272l18.917-13.65 11.4 9.632-18.263 13.672-12.054-9.654zM553.876 73.7h-4.136v65.136h4.136V73.7zM625.918 73.7h-4.135v65.136h4.135V73.7zM564.437 98.93l-4.667 3.829 43.82 36.85 8.13-.113-47.283-40.565z" fill="#388d9f" fill-rule="evenodd"/><path d="M589.237 73.876l-36.614 27.272.173 7.018L597.99 73.97l-8.753-.094zM584.188 73.462l-26.216 6.567v-6.06h-2.068v20.286l28.284-20.794zm-26.216 8.7l16.521-4.14-16.52 12.146V82.16z" fill="#388d9f" fill-rule="evenodd"/><path d="M553.071 103.207l-1.445 1.745 22.734 18.823h-18.356l21.493 12.77-24.488-.026-.003 2.266 32.755.033-21.506-12.777h16.394l-27.578-22.834zM622.607 95.717l-27.812 20.939 27.332 22.235 2.61-3.208-23.233-18.901 23.59-17.761-2.487-3.304z" fill="#388d9f" fill-rule="evenodd"/><path d="M605.953 73.97h-7.963l24.102 22.99 3.358-4.748-19.497-18.243zM619.887 106.872l-13.103 9.774 13.103 11.735v-21.509zm-9.84 9.92l7.772-5.798v12.76l-7.773-6.962zM596.984 83.097l-22.432 16.187 15.427 12.353 21.625-16.188-14.62-12.352zm-19.017 16.272l18.917-13.65 11.4 9.633-18.262 13.67-12.055-9.653zM634.57 73.7h-4.135v65.136h4.135V73.7zM706.612 73.7h-4.135v65.136h4.135V73.7zM645.131 98.93l-4.667 3.829 43.821 36.85 8.13-.113L645.13 98.93z" fill="#388d9f" fill-rule="evenodd"/><path d="M669.931 73.876l-36.614 27.272.173 7.018 45.194-34.196-8.753-.094zM664.882 73.461l-26.216 6.57v-6.062h-2.068v20.286l28.284-20.794zm-26.216 8.701l16.521-4.14-16.52 12.146v-8.006z" fill="#388d9f" fill-rule="evenodd"/><path d="M633.765 103.207l-1.445 1.745 22.734 18.823h-18.356l21.493 12.77-24.488-.026-.002 2.266 32.754.033-21.507-12.777h16.395l-27.578-22.834zM703.301 95.717l-27.812 20.939 27.332 22.235 2.61-3.208-23.233-18.901 23.59-17.761-2.487-3.304z" fill="#388d9f" fill-rule="evenodd"/><path d="M686.647 73.97h-7.963l24.102 22.99 3.358-4.748-19.497-18.243zM700.581 106.872l-13.103 9.774 13.103 11.735v-21.509zm-9.84 9.92l7.772-5.798v12.76l-7.773-6.962zM677.678 83.097l-22.432 16.187 15.427 12.353 21.625-16.188-14.62-12.352zM658.66 99.369l18.917-13.65 11.4 9.633-18.262 13.67-12.055-9.653zM715.264 75.598h-4.135v65.136h4.135V75.598zM787.306 75.598h-4.135v65.136h4.135V75.598zM725.826 100.827l-4.667 3.828 43.82 36.851 8.13-.114-47.283-40.565z" fill="#388d9f" fill-rule="evenodd"/><path d="M750.625 75.773l-36.614 27.272.173 7.018 45.194-34.196-8.753-.094zM745.576 75.358l-26.216 6.569v-6.06h-2.068v20.285l28.284-20.794zm-26.216 8.7l16.521-4.14-16.52 12.147v-8.006z" fill="#388d9f" fill-rule="evenodd"/><path d="M714.46 105.104l-1.445 1.745 22.734 18.823h-18.356l21.493 12.769-24.488-.025-.002 2.266 32.754.033-21.507-12.777h16.395l-27.578-22.834zM783.995 97.614l-27.812 20.94 27.332 22.234 2.61-3.208-23.233-18.9 23.59-17.762-2.486-3.304z" fill="#388d9f" fill-rule="evenodd"/><path d="M767.341 75.867h-7.963l24.102 22.99 3.358-4.748-19.497-18.242zM781.275 108.769l-13.103 9.774 13.103 11.735v-21.509zm-9.84 9.92l7.772-5.798v12.759l-7.773-6.961zM758.372 84.994L735.94 101.18l15.427 12.355 21.625-16.189-14.62-12.352zm-19.017 16.272l18.917-13.649 11.4 9.631-18.262 13.672-12.055-9.654zM795.958 76.221h-4.135v65.136h4.135V76.221zM868.001 76.221h-4.135v65.136h4.135V76.221zM806.52 101.451l-4.667 3.828 43.82 36.851 8.13-.114-47.283-40.565z" fill="#388d9f" fill-rule="evenodd"/><path d="M831.32 76.397l-36.615 27.271.173 7.018 45.194-34.196-8.753-.093zM826.27 75.982l-26.215 6.569V76.49h-2.068v20.286l28.284-20.794zm-26.215 8.7l16.52-4.14-16.52 12.147v-8.006z" fill="#388d9f" fill-rule="evenodd"/><path d="M795.154 105.728l-1.445 1.745 22.734 18.823h-18.356l21.493 12.769-24.488-.025-.002 2.266 32.754.033-21.507-12.777h16.395l-27.578-22.834zM864.69 98.237l-27.812 20.94 27.332 22.234 2.61-3.208-23.233-18.9 23.59-17.762-2.487-3.304z" fill="#388d9f" fill-rule="evenodd"/><path d="M848.036 76.49h-7.963l24.102 22.991 3.358-4.749-19.497-18.242zM861.97 109.393l-13.103 9.774 13.103 11.735v-21.51zm-9.841 9.92l7.773-5.798v12.759l-7.773-6.961zM839.066 85.617l-22.432 16.187 15.427 12.354 21.625-16.188-14.62-12.353zM820.05 101.89l18.917-13.649 11.4 9.632-18.262 13.671-12.055-9.654zM878.475 75.979h-4.135v65.136h4.135V75.979zM950.519 75.979h-4.135v65.136h4.135V75.979zM889.037 101.209l-4.667 3.828 43.821 36.85 8.13-.113-47.284-40.565z" fill="#388d9f" fill-rule="evenodd"/><path d="M913.837 76.154l-36.614 27.272.173 7.018 45.194-34.196-8.753-.094zM908.788 75.74l-26.216 6.568v-6.06h-2.068v20.284l28.284-20.792zm-26.216 8.7l16.521-4.14-16.52 12.146V84.44z" fill="#388d9f" fill-rule="evenodd"/><path d="M877.672 105.485l-1.445 1.745 22.734 18.823h-18.356l21.493 12.77-24.488-.026-.002 2.266 32.754.033-21.507-12.777h16.395l-27.578-22.834zM947.207 97.995l-27.812 20.94 27.332 22.234 2.61-3.208-23.233-18.9 23.59-17.762-2.487-3.304z" fill="#388d9f" fill-rule="evenodd"/><path d="M930.553 76.248h-7.963l24.102 22.99 3.358-4.748-19.497-18.242zM944.487 109.15l-13.103 9.774 13.103 11.735V109.15zm-9.84 9.92l7.772-5.798v12.76l-7.773-6.962zM921.584 85.375l-22.432 16.186 15.427 12.355 21.625-16.189-14.62-12.352zm-19.017 16.272l18.917-13.649 11.4 9.631-18.262 13.672-12.055-9.654zM960.993 75.592h-4.135v65.136h4.135V75.592zM1033.036 75.592h-4.135v65.136h4.135V75.592zM971.555 100.822l-4.667 3.828 43.821 36.851 8.13-.114-47.284-40.565z" fill="#388d9f" fill-rule="evenodd"/><path d="M996.355 75.767l-36.614 27.272.174 7.018 45.193-34.196-8.753-.094zM991.307 75.353l-26.216 6.568v-6.06h-2.068v20.285l28.284-20.793zm-26.216 8.7l16.52-4.139-16.52 12.145v-8.006z" fill="#388d9f" fill-rule="evenodd"/><path d="M960.19 105.099l-1.446 1.745 22.734 18.823h-18.356l21.493 12.769-24.488-.025-.003 2.266 32.755.033-21.507-12.777h16.395l-27.578-22.834zM1029.725 97.609l-27.812 20.939 27.332 22.235 2.61-3.208-23.233-18.901 23.59-17.761-2.487-3.304z" fill="#388d9f" fill-rule="evenodd"/><path d="M1013.071 75.861h-7.963l24.102 22.991 3.358-4.749-19.497-18.242zM1027.005 108.764l-13.103 9.773 13.103 11.736v-21.509zm-9.84 9.92l7.772-5.798v12.76l-7.773-6.963zM1004.102 84.988l-22.432 16.187 15.427 12.354 21.625-16.188-14.62-12.353zm-19.017 16.272l18.917-13.649 11.4 9.632-18.262 13.671-12.055-9.654z" fill="#388d9f" fill-rule="evenodd"/></g></svg>